HIERARCHY
ROOT mixamorig:Hips
{
	OFFSET -0.000008 104.274872 1.554316
	CHANNELS 6 Xposition Yposition Zposition Xrotation Yrotation Zrotation
	JOINT mixamorig:Spine
	{
		OFFSET -0.000005 10.181595 0.131519
		CHANNELS 6 Xposition Yposition Zposition Xrotation Yrotation Zrotation
		JOINT mixamorig:Spine1
		{
			OFFSET -0.000000 9.893959 -1.470707
			CHANNELS 6 Xposition Yposition Zposition Xrotation Yrotation Zrotation
			JOINT mixamorig:Spine2
			{
				OFFSET -0.000000 9.220757 -1.370641
				CHANNELS 6 Xposition Yposition Zposition Xrotation Yrotation Zrotation
				JOINT mixamorig:Neck
				{
					OFFSET 0.000001 16.740417 -2.049036
					CHANNELS 6 Xposition Yposition Zposition Xrotation Yrotation Zrotation
					JOINT mixamorig:Head
					{
						OFFSET 0.000000 9.617874 1.685006
						CHANNELS 6 Xposition Yposition Zposition Xrotation Yrotation Zrotation
						JOINT mixamorig:HeadTop_End
						{
							OFFSET 0.000002 22.037354 7.501101
							CHANNELS 6 Xposition Yposition Zposition Xrotation Yrotation Zrotation
							End Site
							{
								OFFSET 0.000168 2310.654297 -282.823242
							}
						}
					}
				}
				JOINT mixamorig:RightShoulder
				{
					OFFSET -4.569970 11.014908 -2.160885
					CHANNELS 6 Xposition Yposition Zposition Xrotation Yrotation Zrotation
					JOINT mixamorig:RightArm
					{
						OFFSET -10.592851 -0.524811 -2.232101
						CHANNELS 6 Xposition Yposition Zposition Xrotation Yrotation Zrotation
						JOINT mixamorig:RightForeArm
						{
							OFFSET -27.841511 0.000031 -0.000004
							CHANNELS 6 Xposition Yposition Zposition Xrotation Yrotation Zrotation
							JOINT mixamorig:RightHand
							{
								OFFSET -28.328831 -0.000015 0.000015
								CHANNELS 6 Xposition Yposition Zposition Xrotation Yrotation Zrotation
								JOINT mixamorig:RightHandThumb1
								{
									OFFSET -2.464806 -1.573990 2.681852
									CHANNELS 6 Xposition Yposition Zposition Xrotation Yrotation Zrotation
									JOINT mixamorig:RightHandThumb2
									{
										OFFSET -3.215179 -1.872803 1.924282
										CHANNELS 6 Xposition Yposition Zposition Xrotation Yrotation Zrotation
										JOINT mixamorig:RightHandThumb3
										{
											OFFSET -2.654831 -1.527969 1.512609
											CHANNELS 6 Xposition Yposition Zposition Xrotation Yrotation Zrotation
											JOINT mixamorig:RightHandThumb4
											{
												OFFSET -2.018814 -1.152008 1.108052
												CHANNELS 6 Xposition Yposition Zposition Xrotation Yrotation Zrotation
												End Site
												{
													OFFSET -188.809540 -114.533607 132.431396
												}
											}
										}
									}
								}
								JOINT mixamorig:RightHandIndex1
								{
									OFFSET -9.108284 -0.517868 2.259835
									CHANNELS 6 Xposition Yposition Zposition Xrotation Yrotation Zrotation
									JOINT mixamorig:RightHandIndex2
									{
										OFFSET -3.699989 0.000000 0.001215
										CHANNELS 6 Xposition Yposition Zposition Xrotation Yrotation Zrotation
										JOINT mixamorig:RightHandIndex3
										{
											OFFSET -2.850006 0.000031 -0.000522
											CHANNELS 6 Xposition Yposition Zposition Xrotation Yrotation Zrotation
											JOINT mixamorig:RightHandIndex4
											{
												OFFSET -2.772186 -0.000015 -0.000020
												CHANNELS 6 Xposition Yposition Zposition Xrotation Yrotation Zrotation
												End Site
												{
													OFFSET -277.218445 0.000000 -0.050231
												}
											}
										}
									}
								}
								JOINT mixamorig:RightHandMiddle1
								{
									OFFSET -9.532516 -0.000031 -0.000023
									CHANNELS 6 Xposition Yposition Zposition Xrotation Yrotation Zrotation
									JOINT mixamorig:RightHandMiddle2
									{
										OFFSET -3.700005 -0.000015 0.003713
										CHANNELS 6 Xposition Yposition Zposition Xrotation Yrotation Zrotation
										JOINT mixamorig:RightHandMiddle3
										{
											OFFSET -2.949974 0.000015 -0.002054
											CHANNELS 6 Xposition Yposition Zposition Xrotation Yrotation Zrotation
											JOINT mixamorig:RightHandMiddle4
											{
												OFFSET -2.946640 0.000000 -0.000156
												CHANNELS 6 Xposition Yposition Zposition Xrotation Yrotation Zrotation
												End Site
												{
													OFFSET -294.664337 0.000000 -0.113670
												}
											}
										}
									}
								}
								JOINT mixamorig:RightHandRing1
								{
									OFFSET -9.103600 -0.043076 -1.865134
									CHANNELS 6 Xposition Yposition Zposition Xrotation Yrotation Zrotation
									JOINT mixamorig:RightHandRing2
									{
										OFFSET -3.379288 0.000000 -0.001055
										CHANNELS 6 Xposition Yposition Zposition Xrotation Yrotation Zrotation
										JOINT mixamorig:RightHandRing3
										{
											OFFSET -2.889687 -0.000015 0.000379
											CHANNELS 6 Xposition Yposition Zposition Xrotation Yrotation Zrotation
											JOINT mixamorig:RightHandRing4
											{
												OFFSET -2.638809 -0.000015 0.000941
												CHANNELS 6 Xposition Yposition Zposition Xrotation Yrotation Zrotation
												End Site
												{
													OFFSET -263.880371 0.000000 0.516020
												}
											}
										}
									}
								}
								JOINT mixamorig:RightHandPinky1
								{
									OFFSET -8.076683 -0.486710 -3.806280
									CHANNELS 6 Xposition Yposition Zposition Xrotation Yrotation Zrotation
									JOINT mixamorig:RightHandPinky2
									{
										OFFSET -3.600014 -0.000015 -0.003747
										CHANNELS 6 Xposition Yposition Zposition Xrotation Yrotation Zrotation
										JOINT mixamorig:RightHandPinky3
										{
											OFFSET -2.099983 0.000000 -0.005739
											CHANNELS 6 Xposition Yposition Zposition Xrotation Yrotation Zrotation
											JOINT mixamorig:RightHandPinky4
											{
												OFFSET -2.115768 -0.000031 -0.003680
												CHANNELS 6 Xposition Yposition Zposition Xrotation Yrotation Zrotation
												End Site
												{
													OFFSET -211.577087 0.000000 -0.350686
												}
											}
										}
									}
								}
							}
						}
					}
				}
				JOINT mixamorig:LeftShoulder
				{
					OFFSET 4.570447 11.014725 -2.160855
					CHANNELS 6 Xposition Yposition Zposition Xrotation Yrotation Zrotation
					JOINT mixamorig:LeftArm
					{
						OFFSET 10.592371 -0.524597 -2.232119
						CHANNELS 6 Xposition Yposition Zposition Xrotation Yrotation Zrotation
						JOINT mixamorig:LeftForeArm
						{
							OFFSET 27.841532 -0.000031 0.000026
							CHANNELS 6 Xposition Yposition Zposition Xrotation Yrotation Zrotation
							JOINT mixamorig:LeftHand
							{
								OFFSET 28.328846 -0.000061 0.000022
								CHANNELS 6 Xposition Yposition Zposition Xrotation Yrotation Zrotation
								JOINT mixamorig:LeftHandThumb1
								{
									OFFSET 2.466141 -1.576172 2.681732
									CHANNELS 6 Xposition Yposition Zposition Xrotation Yrotation Zrotation
									JOINT mixamorig:LeftHandThumb2
									{
										OFFSET 3.217812 -1.872070 1.916482
										CHANNELS 6 Xposition Yposition Zposition Xrotation Yrotation Zrotation
										JOINT mixamorig:LeftHandThumb3
										{
											OFFSET 2.656029 -1.528778 1.514513
											CHANNELS 6 Xposition Yposition Zposition Xrotation Yrotation Zrotation
											JOINT mixamorig:LeftHandThumb4
											{
												OFFSET 2.020889 -1.154053 1.115139
												CHANNELS 6 Xposition Yposition Zposition Xrotation Yrotation Zrotation
												End Site
												{
													OFFSET 190.885437 -115.081749 130.048782
												}
											}
										}
									}
								}
								JOINT mixamorig:LeftHandIndex1
								{
									OFFSET 9.109314 -0.518021 2.259871
									CHANNELS 6 Xposition Yposition Zposition Xrotation Yrotation Zrotation
									JOINT mixamorig:LeftHandIndex2
									{
										OFFSET 3.699989 0.000000 -0.000322
										CHANNELS 6 Xposition Yposition Zposition Xrotation Yrotation Zrotation
										JOINT mixamorig:LeftHandIndex3
										{
											OFFSET 2.850006 0.000000 0.000352
											CHANNELS 6 Xposition Yposition Zposition Xrotation Yrotation Zrotation
											JOINT mixamorig:LeftHandIndex4
											{
												OFFSET 2.774864 -0.000031 -0.000027
												CHANNELS 6 Xposition Yposition Zposition Xrotation Yrotation Zrotation
												End Site
												{
													OFFSET 277.486267 0.000000 -0.009857
												}
											}
										}
									}
								}
								JOINT mixamorig:LeftHandMiddle1
								{
									OFFSET 9.533394 0.000061 0.000044
									CHANNELS 6 Xposition Yposition Zposition Xrotation Yrotation Zrotation
									JOINT mixamorig:LeftHandMiddle2
									{
										OFFSET 3.699989 -0.000015 -0.000231
										CHANNELS 6 Xposition Yposition Zposition Xrotation Yrotation Zrotation
										JOINT mixamorig:LeftHandMiddle3
										{
											OFFSET 2.949997 -0.000015 -0.000059
											CHANNELS 6 Xposition Yposition Zposition Xrotation Yrotation Zrotation
											JOINT mixamorig:LeftHandMiddle4
											{
												OFFSET 2.952896 0.000031 0.000063
												CHANNELS 6 Xposition Yposition Zposition Xrotation Yrotation Zrotation
												End Site
												{
													OFFSET 295.289337 0.000000 0.022810
												}
											}
										}
									}
								}
								JOINT mixamorig:LeftHandRing1
								{
									OFFSET 9.104523 -0.042999 -1.865074
									CHANNELS 6 Xposition Yposition Zposition Xrotation Yrotation Zrotation
									JOINT mixamorig:LeftHandRing2
									{
										OFFSET 3.150009 -0.000031 0.000043
										CHANNELS 6 Xposition Yposition Zposition Xrotation Yrotation Zrotation
										JOINT mixamorig:LeftHandRing3
										{
											OFFSET 2.949982 -0.000015 0.000040
											CHANNELS 6 Xposition Yposition Zposition Xrotation Yrotation Zrotation
											JOINT mixamorig:LeftHandRing4
											{
												OFFSET 2.644348 0.000000 0.000057
												CHANNELS 6 Xposition Yposition Zposition Xrotation Yrotation Zrotation
												End Site
												{
													OFFSET 264.434631 0.000000 0.012105
												}
											}
										}
									}
								}
								JOINT mixamorig:LeftHandPinky1
								{
									OFFSET 8.077789 -0.486847 -3.806259
									CHANNELS 6 Xposition Yposition Zposition Xrotation Yrotation Zrotation
									JOINT mixamorig:LeftHandPinky2
									{
										OFFSET 3.599953 0.000031 0.014727
										CHANNELS 6 Xposition Yposition Zposition Xrotation Yrotation Zrotation
										JOINT mixamorig:LeftHandPinky3
										{
											OFFSET 2.100021 0.000015 0.007705
											CHANNELS 6 Xposition Yposition Zposition Xrotation Yrotation Zrotation
											JOINT mixamorig:LeftHandPinky4
											{
												OFFSET 2.125504 0.000031 0.007517
												CHANNELS 6 Xposition Yposition Zposition Xrotation Yrotation Zrotation
												End Site
												{
													OFFSET 212.550781 0.000000 0.625752
												}
											}
										}
									}
								}
							}
						}
					}
				}
			}
		}
	}
	JOINT mixamorig:RightUpLeg
	{
		OFFSET -8.207787 -6.751648 -1.599560
		CHANNELS 6 Xposition Yposition Zposition Xrotation Yrotation Zrotation
		JOINT mixamorig:RightLeg
		{
			OFFSET -0.000002 -44.370117 0.345942
			CHANNELS 6 Xposition Yposition Zposition Xrotation Yrotation Zrotation
			JOINT mixamorig:RightFoot
			{
				OFFSET 0.000003 -44.423679 -3.043532
				CHANNELS 6 Xposition Yposition Zposition Xrotation Yrotation Zrotation
				JOINT mixamorig:RightToeBase
				{
					OFFSET -0.000002 -8.728671 10.710558
					CHANNELS 6 Xposition Yposition Zposition Xrotation Yrotation Zrotation
					JOINT mixamorig:RightToe_End
					{
						OFFSET -0.000001 -0.000679 9.278119
						CHANNELS 6 Xposition Yposition Zposition Xrotation Yrotation Zrotation
						End Site
						{
							OFFSET 0.000000 -0.067690 927.812134
						}
					}
				}
			}
		}
	}
	JOINT mixamorig:LeftUpLeg
	{
		OFFSET 8.207793 -6.751686 -1.599556
		CHANNELS 6 Xposition Yposition Zposition Xrotation Yrotation Zrotation
		JOINT mixamorig:LeftLeg
		{
			OFFSET -0.000004 -44.370014 0.346954
			CHANNELS 6 Xposition Yposition Zposition Xrotation Yrotation Zrotation
			JOINT mixamorig:LeftFoot
			{
				OFFSET -0.000001 -44.423672 -3.044401
				CHANNELS 6 Xposition Yposition Zposition Xrotation Yrotation Zrotation
				JOINT mixamorig:LeftToeBase
				{
					OFFSET -0.000002 -8.728669 10.710558
					CHANNELS 6 Xposition Yposition Zposition Xrotation Yrotation Zrotation
					JOINT mixamorig:LeftToe_End
					{
						OFFSET -0.000003 -0.000679 9.278133
						CHANNELS 6 Xposition Yposition Zposition Xrotation Yrotation Zrotation
						End Site
						{
							OFFSET 0.000000 -0.068021 927.813477
						}
					}
				}
			}
		}
	}
}
MOTION
Frames: 3
Frame Time: 0.033333
0.000006 104.270477 1.554256 0.000010 0.000003 -0.000113 -0.000005 10.181587 0.131522 0.000001 -0.000003 0.000084 -0.000000 9.893967 -1.470711 0.000001 0.000000 -0.000000 -0.000000 9.220802 -1.370642 0.000000 -0.000000 -0.000000 0.000001 16.740433 -2.049030 0.000000 -0.000000 -0.000000 0.000000 9.617859 1.685014 0.000000 0.000000 0.000000 0.000002 22.037384 7.501101 0.000000 -0.000000 0.000000 -4.569968 11.014880 -2.160881 0.000008 0.000001 -0.000038 -10.592865 -0.524669 -2.232037 69.805558 5.447102 -3.801822 -27.841534 -0.000003 0.000541 -57.397898 113.374747 79.590453 -28.328829 0.000022 0.000024 -0.000323 -0.000045 0.000007 -2.464414 -1.573887 2.682374 -37.436345 -154.884430 12.343182 -3.215275 -1.872560 1.924644 154.077470 32.624668 10.624469 -2.654953 -1.527872 1.513071 146.743486 27.270229 -33.942410 -2.018830 -1.151987 1.108055 -0.000005 -0.000000 0.000003 -9.108388 -0.517556 2.260180 108.193851 15.592705 -21.482711 -3.700064 0.000322 0.001539 104.410998 11.772460 -15.115052 -2.850075 0.000370 -0.000226 103.199787 8.886626 -11.197691 -2.772179 -0.000002 -0.000019 -0.000001 -0.000001 0.000000 -9.532604 0.000254 0.000280 100.243551 17.498292 -21.045920 -3.700074 0.000338 0.003993 100.163993 11.518055 -13.634646 -2.950063 0.000350 -0.001755 103.114273 10.173716 -12.787858 -2.946634 0.000001 -0.000151 -0.000001 -0.000000 0.000001 -9.103718 -0.042776 -1.864825 99.599478 19.391240 -22.806155 -3.379342 0.000323 -0.000790 101.000371 9.281845 -11.269209 -2.889745 0.000355 0.000683 107.748447 6.105782 -8.420096 -2.638811 -0.000016 0.000944 -0.000000 0.000002 0.000001 -8.076778 -0.486406 -3.805967 93.077720 20.482878 -21.424915 -3.600063 0.000277 -0.003468 97.372652 10.024815 -10.985494 -2.100008 0.000319 -0.005440 102.545086 5.146800 -6.143827 -2.115755 -0.000043 -0.003674 -0.000001 0.000003 -0.000003 4.570446 11.014691 -2.160851 -0.000018 0.000010 -0.000021 10.592509 -0.524522 -2.232392 66.790077 -56.267337 38.835943 27.841776 -0.000041 -0.000117 213.089908 -75.962885 221.661973 28.328825 -0.000030 0.000022 0.000021 -0.000090 -0.000000 2.466249 -1.575977 2.681835 30.681066 176.541225 -129.232206 3.217839 -1.871965 1.916541 224.675822 28.160856 -297.266143 2.656085 -1.528722 1.514612 60.747976 156.982800 -130.836358 2.020887 -1.154067 1.115148 -0.000001 -0.000002 0.000001 9.109389 -0.517919 2.259760 74.423558 -26.982942 20.640123 3.700075 0.000109 -0.000434 82.514423 -24.464527 21.551798 2.850069 0.000194 0.000222 88.011127 -16.834337 16.266401 2.774879 -0.000017 -0.000029 -0.000000 -0.000001 -0.000003 9.533468 0.000187 -0.000078 82.296519 -19.336581 16.926882 3.700066 0.000203 -0.000370 96.650783 -16.361131 18.344095 2.950029 0.000210 -0.000211 96.393230 -13.188249 14.735558 2.952885 -0.000029 0.000062 0.000002 0.000003 0.000001 9.104608 -0.042895 -1.865196 82.431285 -28.725986 25.285654 3.150043 0.000246 -0.000102 103.966045 -11.012024 14.060995 2.949967 0.000274 -0.000107 105.103040 0.982725 -1.281187 2.644314 0.000033 0.000059 0.000002 0.000001 -0.000002 8.077835 -0.486845 -3.806285 47.468906 -48.198832 22.653258 3.599986 0.000040 0.014647 35.793900 -13.428524 4.543319 2.099986 0.000085 0.007555 42.956006 2.397698 -0.793777 2.125491 -0.000014 0.007501 0.000001 0.000002 -0.000001 -8.207786 -6.751667 -1.599560 -0.077001 -0.000003 0.000080 -0.000002 -44.370110 0.345938 0.153719 -0.000000 -0.000000 0.000000 -44.423679 -3.043532 -0.076700 0.000000 -0.000002 -0.000006 -8.728667 10.710559 -0.000009 -0.000000 -0.000000 -0.000001 -0.000679 9.278123 0.000000 -0.000000 -0.000000 8.207792 -6.751710 -1.599556 -0.074518 -0.000003 0.000081 -0.000002 -44.370014 0.346960 0.148822 0.000002 0.000000 -0.000001 -44.423664 -3.044403 -0.074314 0.000000 -0.000002 -0.000004 -8.728671 10.710558 0.000007 -0.000000 -0.000000 0.000000 -0.000680 9.278137 -0.000000 0.000000 -0.000001 
0.000006 104.270477 1.554256 0.000010 0.000003 -0.000113 -0.000005 10.181587 0.131522 0.000001 -0.000003 0.000084 -0.000000 9.893967 -1.470711 0.000001 0.000000 -0.000000 -0.000000 9.220802 -1.370642 0.000000 -0.000000 -0.000000 0.000001 16.740433 -2.049030 0.000000 -0.000000 -0.000000 0.000000 9.617859 1.685014 0.000000 0.000000 0.000000 0.000002 22.037384 7.501101 0.000000 -0.000000 0.000000 -4.569968 11.014880 -2.160881 0.000008 0.000001 -0.000038 -10.592854 -0.524658 -2.232054 70.153850 1.696877 -1.191617 -27.841537 0.000023 0.000554 -57.549139 113.436465 79.833122 -28.328844 0.000021 0.000017 -0.000322 -0.000044 0.000007 -2.464399 -1.573848 2.682360 -41.409104 -157.862884 4.692162 -3.215269 -1.872590 1.924637 153.819617 32.456045 9.851838 -2.654942 -1.527875 1.513067 147.334215 27.302481 -32.555229 -2.018846 -1.151999 1.108061 -0.000000 -0.000002 0.000004 -9.108348 -0.517548 2.260161 108.259728 14.636996 -20.206435 -3.700059 0.000324 0.001559 104.961552 11.082193 -14.371626 -2.850073 0.000365 -0.000231 103.432867 8.161577 -10.328755 -2.772147 0.000002 -0.000022 0.000000 -0.000002 -0.000000 -9.532585 0.000269 0.000280 100.944042 16.484677 -20.086029 -3.700069 0.000337 0.003997 100.828742 11.524678 -13.802874 -2.950068 0.000344 -0.001777 102.805494 10.118111 -12.648561 -2.946631 0.000014 -0.000154 0.000002 -0.000001 -0.000000 -9.103689 -0.042768 -1.864840 99.862393 18.460463 -21.815805 -3.379322 0.000324 -0.000766 100.812533 9.265453 -11.212139 -2.889749 0.000369 0.000687 106.552973 6.004515 -8.103292 -2.638817 -0.000030 0.000943 -0.000003 -0.000002 0.000000 -8.076740 -0.486398 -3.805976 93.387899 19.306549 -20.296792 -3.600045 0.000278 -0.003502 97.105762 9.338967 -10.162669 -2.100032 0.000327 -0.005444 101.784169 4.617559 -5.412753 -2.115788 -0.000029 -0.003687 -0.000000 -0.000002 -0.000001 4.570446 11.014691 -2.160851 -0.000018 0.000010 -0.000021 10.592509 -0.524516 -2.232401 66.854827 -54.879436 37.835963 27.841778 -0.000047 -0.000127 213.190367 -75.991660 221.764481 28.328831 -0.000030 0.000015 0.000025 -0.000087 0.000000 2.466233 -1.575958 2.681832 33.080037 180.219596 -134.275194 3.217842 -1.871949 1.916532 229.479084 25.467050 -302.658823 2.656089 -1.528687 1.514639 63.043131 160.001839 -134.006385 2.020902 -1.154050 1.115154 0.000001 0.000001 0.000004 9.109390 -0.517908 2.259752 76.948235 -26.516065 21.200045 3.700070 0.000112 -0.000421 83.236121 -25.868442 23.080563 2.850089 0.000190 0.000206 86.183546 -18.589413 17.408344 2.774887 -0.000017 -0.000028 0.000000 -0.000002 -0.000000 9.533463 0.000185 -0.000081 84.113151 -19.569102 17.678674 3.700055 0.000201 -0.000367 96.301631 -16.616037 18.517001 2.950072 0.000194 -0.000206 96.393463 -12.735754 14.231182 2.952876 -0.000019 0.000066 0.000002 -0.000001 0.000002 9.104607 -0.042891 -1.865210 83.405926 -29.012434 25.966976 3.150048 0.000230 -0.000071 103.608519 -10.981791 13.933627 2.949986 0.000275 -0.000099 104.932278 2.098272 -2.729119 2.644333 0.000026 0.000059 -0.000002 0.000001 -0.000000 8.077833 -0.486861 -3.806272 47.232285 -49.644731 23.268943 3.599975 0.000053 0.014648 32.284361 -12.711502 3.864362 2.099988 0.000073 0.007581 37.736081 3.651067 -1.124092 2.125504 -0.000014 0.007506 0.000000 0.000003 -0.000006 -8.207786 -6.751667 -1.599560 -0.077001 -0.000003 0.000080 -0.000002 -44.370110 0.345938 0.153719 -0.000000 -0.000000 0.000000 -44.423679 -3.043532 -0.076700 0.000000 -0.000002 -0.000006 -8.728667 10.710559 -0.000009 -0.000000 -0.000000 -0.000001 -0.000679 9.278123 0.000000 -0.000000 -0.000000 8.207792 -6.751710 -1.599556 -0.074518 -0.000003 0.000081 -0.000002 -44.370014 0.346960 0.148822 0.000002 0.000000 -0.000001 -44.423664 -3.044403 -0.074314 0.000000 -0.000002 -0.000004 -8.728671 10.710558 0.000007 -0.000000 -0.000000 0.000000 -0.000680 9.278137 -0.000000 0.000000 -0.000001 
0.000006 104.270477 1.554256 0.000010 0.000003 -0.000113 -0.000005 10.181587 0.131522 0.000001 -0.000003 0.000084 -0.000000 9.893967 -1.470711 0.000001 0.000000 -0.000000 -0.000000 9.220802 -1.370642 0.000000 -0.000000 -0.000000 0.000001 16.740433 -2.049030 0.000000 -0.000000 -0.000000 0.000000 9.617859 1.685014 0.000000 0.000000 0.000000 0.000002 22.037384 7.501101 0.000000 -0.000000 0.000000 -4.569968 11.014880 -2.160881 0.000008 0.000001 -0.000038 -10.592853 -0.524651 -2.232061 70.196928 0.791115 -0.555986 -27.841539 0.000007 0.000530 -57.793338 113.845702 80.558092 -28.328836 0.000006 0.000025 -0.000324 -0.000044 0.000007 -2.464438 -1.573836 2.682353 -41.266463 -158.115300 5.099689 -3.215274 -1.872593 1.924656 154.028388 32.448555 9.577795 -2.654960 -1.527864 1.513059 147.218826 27.250040 -33.298163 -2.018826 -1.152012 1.108058 -0.000002 0.000000 0.000002 -9.108387 -0.517558 2.260157 108.208201 14.862555 -20.494874 -3.700076 0.000324 0.001537 104.800865 11.347987 -14.673220 -2.850065 0.000385 -0.000226 103.367256 8.397113 -10.613806 -2.772161 -0.000000 -0.000020 -0.000001 -0.000000 -0.000001 -9.532616 0.000265 0.000273 101.041147 16.883780 -20.600342 -3.700067 0.000323 0.004004 101.129898 11.768834 -14.171337 -2.950065 0.000322 -0.001781 103.147850 10.428509 -13.115120 -2.946617 0.000001 -0.000151 0.000003 -0.000000 0.000000 -9.103730 -0.042771 -1.864834 99.958835 18.679184 -22.109800 -3.379319 0.000329 -0.000790 100.920321 9.249736 -11.214494 -2.889756 0.000356 0.000660 106.778970 6.012221 -8.146973 -2.638817 -0.000004 0.000940 -0.000001 0.000001 -0.000000 -8.076771 -0.486390 -3.806000 93.254082 19.381080 -20.328871 -3.600063 0.000280 -0.003488 97.153813 9.391628 -10.230520 -2.100011 0.000308 -0.005438 101.762162 4.788865 -5.620433 -2.115795 -0.000016 -0.003682 0.000004 0.000003 -0.000005 4.570446 11.014691 -2.160851 -0.000018 0.000010 -0.000021 10.592508 -0.524523 -2.232394 66.919448 -54.965538 37.943726 27.841772 -0.000039 -0.000117 213.258395 -75.497325 222.188663 28.328829 -0.000013 0.000021 0.000024 -0.000089 -0.000002 2.466244 -1.575949 2.681842 33.358699 178.999410 -133.227115 3.217877 -1.871947 1.916544 229.118655 25.201248 -302.583500 2.656092 -1.528686 1.514631 63.687286 160.344906 -134.580053 2.020891 -1.154076 1.115151 -0.000003 0.000005 0.000002 9.109386 -0.517901 2.259761 77.471291 -24.452304 19.710300 3.700069 0.000120 -0.000432 83.063023 -24.256720 21.569970 2.850064 0.000176 0.000222 84.185749 -17.485749 15.816898 2.774904 -0.000044 -0.000024 -0.000001 0.000002 0.000003 9.533461 0.000198 -0.000073 84.819755 -17.799304 16.271963 3.700068 0.000185 -0.000349 97.852931 -15.942440 18.251954 2.950066 0.000204 -0.000203 97.159379 -13.062401 14.790969 2.952859 -0.000016 0.000067 0.000002 -0.000001 -0.000000 9.104613 -0.042885 -1.865170 84.513257 -27.480675 25.052507 3.150048 0.000266 -0.000076 105.924445 -11.276367 14.909869 2.949996 0.000266 -0.000122 105.603378 1.076012 -1.415741 2.644335 0.000032 0.000055 -0.000002 0.000001 -0.000001 8.077829 -0.486863 -3.806274 46.157411 -48.070496 21.911747 3.599982 0.000026 0.014645 30.718605 -13.447708 3.877165 2.100001 0.000061 0.007578 37.618083 2.438994 -0.702383 2.125498 -0.000000 0.007510 0.000001 0.000000 -0.000004 -8.207786 -6.751667 -1.599560 -0.077001 -0.000003 0.000080 -0.000002 -44.370110 0.345938 0.153719 -0.000000 -0.000000 0.000000 -44.423679 -3.043532 -0.076700 0.000000 -0.000002 -0.000006 -8.728667 10.710559 -0.000009 -0.000000 -0.000000 -0.000001 -0.000679 9.278123 0.000000 -0.000000 -0.000000 8.207792 -6.751710 -1.599556 -0.074518 -0.000003 0.000081 -0.000002 -44.370014 0.346960 0.148822 0.000002 0.000000 -0.000001 -44.423664 -3.044403 -0.074314 0.000000 -0.000002 -0.000004 -8.728671 10.710558 0.000007 -0.000000 -0.000000 0.000000 -0.000680 9.278137 -0.000000 0.000000 -0.000001 
